<svg width="28" height="29" viewBox="0 0 28 29" fill="none" xmlns="http://www.w3.org/2000/svg">
<path d="M14.8723 2.88217C14.6289 2.68269 14.3196 2.57315 14 2.57315C13.6804 2.57315 13.3711 2.68269 13.1277 2.88217L2.62769 11.4782C2.47903 11.6 2.35964 11.7515 2.27782 11.9221C2.196 12.0928 2.1537 12.2786 2.15385 12.4666V25.9071C2.15385 26.0446 2.21058 26.1765 2.31156 26.2738C2.41254 26.3711 2.5495 26.4257 2.69231 26.4257H8.07692C8.21973 26.4257 8.35669 26.3711 8.45767 26.2738C8.55865 26.1765 8.61539 26.0446 8.61539 25.9071V18.647C8.61539 17.9593 8.89904 17.2998 9.40394 16.8135C9.90885 16.3273 10.5936 16.0541 11.3077 16.0541H16.1538C16.5074 16.0541 16.8575 16.1212 17.1841 16.2515C17.5108 16.3818 17.8076 16.5728 18.0576 16.8135C18.3076 17.0543 18.5059 17.3401 18.6412 17.6547C18.7765 17.9693 18.8462 18.3065 18.8462 18.647V25.9071C18.8462 26.0446 18.9029 26.1765 19.0039 26.2738C19.1048 26.3711 19.2418 26.4257 19.3846 26.4257H25.3077C25.4505 26.4257 25.5875 26.3711 25.6884 26.2738C25.7894 26.1765 25.8462 26.0446 25.8462 25.9071V12.4655C25.8461 12.2777 25.8038 12.0921 25.722 11.9217C25.6401 11.7512 25.5208 11.5999 25.3723 11.4782L14.8723 2.88321V2.88217ZM11.7331 1.30258C12.3659 0.784481 13.1694 0.500008 14 0.500008C14.8306 0.500008 15.6341 0.784481 16.2669 1.30258L26.7669 9.89752C27.1534 10.2139 27.4639 10.6075 27.6768 11.0509C27.8897 11.4943 28 11.977 28 12.4655V25.9071C28 26.5948 27.7163 27.2543 27.2114 27.7406C26.7065 28.2268 26.0217 28.5 25.3077 28.5H19.3846C18.6706 28.5 17.9858 28.2268 17.4809 27.7406C16.976 27.2543 16.6923 26.5948 16.6923 25.9071V18.647C16.6923 18.5095 16.6356 18.3776 16.5346 18.2803C16.4336 18.1831 16.2967 18.1284 16.1538 18.1284H11.3077C11.1649 18.1284 11.0279 18.1831 10.9269 18.2803C10.826 18.3776 10.7692 18.5095 10.7692 18.647V25.9071C10.7692 26.5948 10.4856 27.2543 9.98067 27.7406C9.47577 28.2268 8.79097 28.5 8.07692 28.5H2.69231C1.97826 28.5 1.29346 28.2268 0.788559 27.7406C0.283653 27.2543 0 26.5948 0 25.9071V12.4655C2.83349e-05 11.977 0.110318 11.4943 0.323232 11.0509C0.536146 10.6075 0.846594 10.2139 1.23308 9.89752L11.7331 1.30258Z" fill="#0061C7"/>
</svg>
