<svg width="48" height="48" viewBox="0 0 48 48" fill="none" xmlns="http://www.w3.org/2000/svg">
<circle cx="24" cy="24" r="24" fill="#FFF3C9"/>
<path d="M24.0003 10.6667C31.3643 10.6667 37.3337 16.6374 37.3337 24.0001C37.3337 31.3627 31.3643 37.3334 24.0003 37.3334C16.6363 37.3334 10.667 31.3627 10.667 24.0001C10.667 16.6374 16.6363 10.6667 24.0003 10.6667ZM24.0003 28.6667C23.6467 28.6667 23.3076 28.8072 23.0575 29.0573C22.8075 29.3073 22.667 29.6465 22.667 30.0001C22.667 30.3537 22.8075 30.6928 23.0575 30.9429C23.3076 31.1929 23.6467 31.3334 24.0003 31.3334C24.3539 31.3334 24.6931 31.1929 24.9431 30.9429C25.1932 30.6928 25.3337 30.3537 25.3337 30.0001C25.3337 29.6465 25.1932 29.3073 24.9431 29.0573C24.6931 28.8072 24.3539 28.6667 24.0003 28.6667ZM24.0003 17.0001C23.0279 17.0001 22.0952 17.3864 21.4076 18.074C20.72 18.7617 20.3337 19.6943 20.3337 20.6667C20.3337 20.9201 20.43 21.164 20.603 21.3491C20.7759 21.5343 21.0127 21.6468 21.2655 21.6641C21.5183 21.6814 21.7682 21.6021 21.9647 21.4422C22.1613 21.2823 22.2898 21.0537 22.3243 20.8027L22.3337 20.6667C22.3337 20.2247 22.5093 19.8008 22.8218 19.4882C23.1344 19.1757 23.5583 19.0001 24.0003 19.0001C24.4424 19.0001 24.8663 19.1757 25.1788 19.4882C25.4914 19.8008 25.667 20.2247 25.667 20.6667C25.667 21.3854 25.487 21.7401 24.807 22.4427L24.627 22.6267C23.4563 23.7974 23.0003 24.5561 23.0003 26.0001C23.0003 26.2653 23.1057 26.5197 23.2932 26.7072C23.4808 26.8947 23.7351 27.0001 24.0003 27.0001C24.2655 27.0001 24.5199 26.8947 24.7074 26.7072C24.895 26.5197 25.0003 26.2653 25.0003 26.0001C25.0003 25.2814 25.1803 24.9267 25.8603 24.2241L26.0403 24.0401C27.211 22.8694 27.667 22.1107 27.667 20.6667C27.667 19.6943 27.2807 18.7617 26.5931 18.074C25.9054 17.3864 24.9728 17.0001 24.0003 17.0001Z" fill="#FFCB73"/>
</svg>
